<svg width="12" height="20" viewBox="0 0 12 20" fill="none" xmlns="http://www.w3.org/2000/svg">
<path d="M11.3848 6.15812C11.3848 5.15711 11.0926 4.17642 10.5419 3.32881C9.99113 2.48121 9.20419 1.80111 8.27153 1.36671C7.33887 0.932316 6.29837 0.761259 5.26965 0.873212C4.24093 0.985166 3.26577 1.37558 2.4563 1.99957C1.64683 2.62356 1.03591 3.45579 0.693796 4.40056C0.351678 5.34533 0.292251 6.36428 0.522348 7.34025C0.752445 8.31623 1.26272 9.20959 1.99451 9.91763C2.72629 10.6257 3.64987 11.1196 4.65905 11.3427V19.8398H7.10545V11.3427C8.31996 11.0738 9.40434 10.4148 10.1816 9.47313C10.9588 8.53149 11.3829 7.3629 11.3848 6.15812ZM2.77334 6.15812C2.77334 5.56307 2.95582 4.98138 3.29771 4.48661C3.6396 3.99184 4.12553 3.60622 4.69407 3.3785C5.26261 3.15078 5.88822 3.0912 6.49178 3.20729C7.09533 3.32338 7.64974 3.60992 8.08488 4.03069C8.52002 4.45146 8.81635 4.98755 8.93641 5.57116C9.05646 6.15478 8.99485 6.75972 8.75935 7.30948C8.52385 7.85924 8.12505 8.32912 7.61338 8.65972C7.10171 8.99031 6.50015 9.16676 5.88477 9.16676C5.05977 9.16612 4.26875 8.84893 3.68539 8.28484C3.10203 7.72075 2.774 6.95586 2.77334 6.15812Z" fill="#767676"/>
</svg>
